<svg viewBox="0 0 430 463" fill="none" xmlns="http://www.w3.org/2000/svg" id="logo">
<rect width="430" height="463" fill="white"/>
<path d="M175.579 244.007H254.42L215 149.339L175.579 244.007ZM215 0L0 76.8926L32.9022 361.821L215 463L397.097 361.821L430 76.8926L215 0ZM349.712 353.246H299.426L272.32 285.655H157.887L130.778 353.246H80.3914L215 51.1577L349.712 353.246Z" fill="#DD0031"/>
<path d="M318.5 455C380.08 455 430 405.08 430 343.5C430 281.92 380.08 232 318.5 232C256.92 232 207 281.92 207 343.5C207 405.08 256.92 455 318.5 455Z" fill="#49BF55"/>
<path d="M301.601 401.341L250.206 349.946C249.509 349.249 249.509 348.204 250.206 347.507L265.015 332.698C265.712 332.002 266.757 332.002 267.454 332.698L302.82 368.065L369.372 301.513C370.069 300.816 371.114 300.816 371.811 301.513L386.62 316.322C387.316 317.019 387.316 318.064 386.62 318.761L304.04 401.341C303.343 402.037 302.298 402.037 301.601 401.341Z" fill="white"/>
</svg>
